<svg height="16" width="20" xmlns="http://www.w3.org/2000/svg" viewBox="0 0 16 20">
    <title>Clouds icon</title>
    <description>Created by icon 54 from the Noun Project</description>
    <path fill="var(--cloud)" d="M10.5 9c-.044 0-.087.001-.129.003A3.998 3.998 0 006.5 6a4.024 4.024 0 00-3.461 2H3c-1.654 0-3 1.346-3 3s1.346 3 3 3h7.5c1.379 0 2.5-1.121 2.5-2.5S11.879 9 10.5 9z"/>
    <path fill="var(--cloud)" d="M12.902 5.001A4.986 4.986 0 008 1a5 5 0 00-4.584 3.001A3.504 3.504 0 000 7.5c0 .265.035.521.091.769a3.987 3.987 0 012.388-1.236 4.994 4.994 0 018.625 1.019 3.506 3.506 0 012.83 2.784A2.994 2.994 0 0016 8c0-1.687-1.423-3.042-3.098-2.999z"/>
</svg>