<svg height="16" width="20" xmlns="http://www.w3.org/2000/svg" viewBox="0 0 16 20">
    <title>Cloudy night icon</title>
    <description>Created by icon 54 from the Noun Project</description>
    <path fill="var(--cloud)" d="M12.902 7.001A4.986 4.986 0 008 3a5 5 0 00-4.584 3.001A3.504 3.504 0 000 9.5C0 11.43 1.57 13 3.5 13H13c1.654 0 3-1.346 3-3 0-1.687-1.423-3.042-3.098-2.999z"/>
    <path fill="var(--moon)" d="M13.683 6.064c.621.112 1.21.376 1.718.758.328-.431.543-.956.597-1.535a.498.498 0 00-.75-.478c-.214.125-.47.191-.738.191-.827 0-1.5-.673-1.5-1.5 0-.269.066-.524.191-.737a.5.5 0 00-.479-.751 2.971 2.971 0 00-1.752.795 6.004 6.004 0 012.713 3.257z"/>
</svg>