<svg height="16" width="20" xmlns="http://www.w3.org/2000/svg" viewBox="0 0 16 20">
    <title>Cloudy day icon</title>
    <description>Created by icon 54 from the Noun Project</description>
    <path fill="var(--cloud)" d="M12.902 7.001A4.986 4.986 0 008 3a5 5 0 00-4.584 3.001A3.504 3.504 0 000 9.5C0 11.43 1.57 13 3.5 13H13c1.654 0 3-1.346 3-3 0-1.687-1.423-3.042-3.098-2.999z"/>
    <path fill="var(--sun)" d="M13.683 6.064a4.073 4.073 0 011.699.742A2.978 2.978 0 0016 5a3 3 0 00-3-3c-.787 0-1.497.31-2.033.805a6.005 6.005 0 012.716 3.259z"/>
</svg>