<svg height="16" width="20" xmlns="http://www.w3.org/2000/svg" viewBox="0 0 16 20">
    <title>Fog icon</title>
    <description>Created by icon 54 from the Noun Project</description>
    <path fill="var(--cloud)" d="M1.652 4.594l1.321-.423a3.607 3.607 0 012.823.267c.68.374 1.442.559 2.204.559s1.524-.186 2.204-.559a3.606 3.606 0 012.823-.268l1.321.423a.503.503 0 00.628-.324.501.501 0 00-.324-.629l-1.322-.423a4.613 4.613 0 00-3.607.344 3.619 3.619 0 01-3.446 0 4.62 4.62 0 00-3.608-.343l-1.321.423a.5.5 0 10.304.953z"/>
    <path fill="var(--cloud)" d="M14.652 6.641l-1.322-.423a4.622 4.622 0 00-3.607.344 3.619 3.619 0 01-3.446 0 4.625 4.625 0 00-3.608-.344l-1.321.423a.5.5 0 10.304.953l1.321-.423a3.616 3.616 0 012.823.267c.68.374 1.442.559 2.204.559s1.524-.186 2.204-.559a3.61 3.61 0 012.823-.268l1.321.423a.499.499 0 10.304-.952z"/>
    <path fill="var(--cloud)" d="M14.652 9.641l-1.322-.423a4.622 4.622 0 00-3.607.344 3.619 3.619 0 01-3.446 0 4.625 4.625 0 00-3.608-.344l-1.321.423a.501.501 0 00.304.953l1.321-.423a3.608 3.608 0 012.823.268c.68.373 1.441.559 2.204.559s1.524-.186 2.204-.559a3.606 3.606 0 012.823-.268l1.321.423a.5.5 0 10.304-.953z"/>
    <path fill="var(--cloud)" d="M14.652 12.641l-1.322-.423a4.617 4.617 0 00-3.607.344 3.619 3.619 0 01-3.446 0 4.62 4.62 0 00-3.608-.344l-1.321.423a.501.501 0 00.304.953l1.321-.423a3.608 3.608 0 012.823.268c.68.373 1.441.559 2.204.559s1.524-.186 2.204-.559a3.606 3.606 0 012.823-.268l1.321.423a.5.5 0 10.304-.953z"/>
</svg>