<svg height="16" width="20" xmlns="http://www.w3.org/2000/svg" viewBox="0 0 16 20">
    <title>Light day rain icon</title>
    <description>Created by icon 54 from the Noun Project</description>
    <path fill="var(--cloud)" d="M13 5l-.098.001A4.985 4.985 0 008 1a5 5 0 00-4.584 3.001A3.504 3.504 0 000 7.5C0 9.43 1.57 11 3.5 11H13c1.654 0 3-1.346 3-3s-1.346-3-3-3z"/>
    <path fill="var(--rain)" d="M7.589 12.216C7.261 12.689 6.5 13.86 6.5 14.5c0 .827.673 1.5 1.5 1.5s1.5-.673 1.5-1.5c0-.64-.761-1.811-1.089-2.284-.186-.27-.636-.27-.822 0z"/>
    <path fill="var(--sun)" d="M13 0c-.787 0-1.497.31-2.032.805a5.996 5.996 0 012.713 3.253 3.96 3.96 0 011.702.747A2.974 2.974 0 0016 3a3 3 0 00-3-3z"/>
</svg>