<svg height="16" width="20" xmlns="http://www.w3.org/2000/svg" viewBox="0 0 16 20">
    <title>Moderate night rain icon</title>
    <description>Created by icon 54 from the Noun Project</description>
    <path fill="var(--cloud)" d="M13 5l-.098.001A4.985 4.985 0 008 1a5 5 0 00-4.584 3.001A3.504 3.504 0 000 7.5C0 9.43 1.57 11 3.5 11H13c1.654 0 3-1.346 3-3s-1.346-3-3-3z"/>
    <path fill="var(--rain)" d="M12.089 12.216C11.762 12.689 11 13.86 11 14.5c0 .827.673 1.5 1.5 1.5s1.5-.673 1.5-1.5c0-.64-.762-1.811-1.089-2.284-.185-.27-.637-.27-.822 0z"/>
    <path fill="var(--rain)" d="M3.089 12.216C2.761 12.689 2 13.86 2 14.5c0 .827.673 1.5 1.5 1.5S5 15.327 5 14.5c0-.64-.761-1.811-1.089-2.284-.186-.27-.636-.27-.822 0z"/>
    <path fill="var(--moon)" d="M13.681 4.058c.638.11 1.218.381 1.715.756.325-.43.538-.952.592-1.527a.498.498 0 00-.75-.478A1.462 1.462 0 0114.5 3c-.827 0-1.5-.673-1.5-1.5 0-.269.066-.524.191-.737a.5.5 0 00-.479-.751 2.968 2.968 0 00-1.748.792 5.997 5.997 0 012.717 3.254z"/>
</svg>