<svg height="16" width="20" xmlns="http://www.w3.org/2000/svg" viewBox="0 0 16 20">
    <title>Mostly cloudy night icon</title>
    <description>Created by icon 54 from the Noun Project</description>
    <path fill="var(--moon)" d="M13.291 11.699a5.46 5.46 0 01-4.069-.199H6c-1.93 0-3.5-1.57-3.5-3.5 0-.938.388-1.854 1.065-2.515a3.414 3.414 0 012.194-.979 4.52 4.52 0 011.349-1.301c.36-.478.793-.905 1.303-1.25a.5.5 0 00-.21-.91A4.854 4.854 0 007.5 1C3.364 1 0 4.364 0 8.5S3.364 16 7.5 16a7.445 7.445 0 006.386-3.568.5.5 0 00-.595-.733z"/>
    <path fill="var(--cloud)" d="M14.891 7.073a2.079 2.079 0 00-1.501-.57l-.403.015-.1-.391A3.49 3.49 0 009.5 3.5c-1.24 0-2.401.671-3.029 1.752l-.149.256-.296-.008h-.062c-.633 0-1.235.248-1.701.702A2.493 2.493 0 003.5 8c0 1.379 1.122 2.5 2.5 2.5h7.5c1.103 0 2-.897 2-2 0-.542-.217-1.049-.609-1.427z"/>
</svg>