<svg height="16" width="20" xmlns="http://www.w3.org/2000/svg" viewBox="0 0 16 20">
    <title>Partly cloudy day icon</title>
    <description>Created by icon 54 from the Noun Project</description>
    <path fill="var(--sun)" d="M8 1a7.001 7.001 0 00-6.694 4.953 3.47 3.47 0 011.451-.445A4.523 4.523 0 016.5 3.5a4.488 4.488 0 014.244 3.01 2.985 2.985 0 011.825.824c.601.573.931 1.342.931 2.166 0 1.654-1.346 3-3 3H3c-.135 0-.264-.025-.395-.04A7 7 0 108 1z"/>
    <path fill="var(--cloud)" d="M1.758 11.157c.368.212.788.343 1.242.343h7.5c1.103 0 2-.897 2-2 0-.548-.221-1.06-.621-1.442a2.026 2.026 0 00-1.484-.556l-.408.019-.1-.395A3.491 3.491 0 006.5 4.5c-1.24 0-2.401.671-3.029 1.752l-.151.259-.3-.011c-.818 0-1.534.391-1.994.986C1.013 7.656 1 7.826 1 8c0 1.137.277 2.207.758 3.157z"/>
    <path fill="var(--cloud)" d="M11.879 8.058a2.026 2.026 0 00-1.484-.556l-.408.019-.1-.395A3.491 3.491 0 006.5 4.5c-1.24 0-2.401.671-3.029 1.752l-.151.259-.3-.011A2.508 2.508 0 00.5 9c0 1.379 1.122 2.5 2.5 2.5h7.5c1.103 0 2-.897 2-2 0-.548-.221-1.06-.621-1.442z"/>
</svg>