<svg height="16" width="20" xmlns="http://www.w3.org/2000/svg" viewBox="0 0 16 20">
    <title>Partly cloudy night icon</title>
    <description>Created by icon 54 from the Noun Project</description>
    <path fill="var(--moon)" d="M13.848 11.854a.502.502 0 00-.557-.155A5.29 5.29 0 0111.5 12a5.475 5.475 0 01-3.763-1.5H7A2.503 2.503 0 014.5 8c0-1.047.651-1.937 1.566-2.309A5.477 5.477 0 018.41 1.954a.5.5 0 00-.209-.909A4.854 4.854 0 007.5 1C3.364 1 0 4.364 0 8.5S3.364 16 7.5 16a7.445 7.445 0 006.386-3.568.503.503 0 00-.038-.578z"/>
    <path fill="var(--cloud)" d="M7.639 6.173l-.129.363-.383-.031A1.502 1.502 0 005.5 8c0 .827.673 1.5 1.5 1.5h5.25c.689 0 1.25-.561 1.25-1.25 0-.489-.29-.936-.74-1.138l-.259-.116-.033-.282A2.492 2.492 0 0010 4.5a2.544 2.544 0 00-2.361 1.673z"/>
</svg>