<svg height="16" width="20" xmlns="http://www.w3.org/2000/svg" viewBox="0 0 16 20">
    <title>Snow day icon</title>
    <description>Created by icon 54 from the Noun Project</description>
    <path fill="var(--sun)" d="M13 0c-.787 0-1.497.31-2.032.805a5.996 5.996 0 012.713 3.253 3.96 3.96 0 011.702.747A2.974 2.974 0 0016 3a3 3 0 00-3-3z"/>
    <path fill="var(--snow)" d="M8.598 9a.499.499 0 00-.683-.183L6.5 9.634V8a.5.5 0 00-1 0v1.634l-1.415-.817a.5.5 0 00-.5.866l1.416.817-1.416.817a.5.5 0 10.501.866l1.414-.817V13a.5.5 0 001 0v-1.634l1.415.817A.502.502 0 008.599 12a.5.5 0 00-.183-.683L6.999 10.5l1.416-.817A.5.5 0 008.598 9z"/>
    <path fill="var(--cloud)" d="M13 5l-.098.001A4.985 4.985 0 008 1a5 5 0 00-4.584 3.001A3.504 3.504 0 000 7.5c0 1.623 1.116 2.979 2.617 3.373.105-.146.236-.272.389-.373a1.488 1.488 0 01-.62-.861 1.488 1.488 0 01.15-1.139c.2-.348.525-.597.914-.7a1.482 1.482 0 011.053.107A1.502 1.502 0 016 6.5c.795 0 1.449.623 1.497 1.406a1.482 1.482 0 011.05-.107c.389.102.714.351.916.699l.001.002c.201.347.254.752.15 1.139a1.487 1.487 0 01-.62.861c.193.127.334.304.449.5H13c1.654 0 3-1.346 3-3s-1.346-3-3-3z"/>
    <path fill="var(--snow)" d="M13.231 13a.498.498 0 00-.683-.183l-.548.317V12.5a.5.5 0 00-1 0v.634l-.549-.317a.499.499 0 10-.499.866l.549.317-.55.317a.499.499 0 00.251.933.494.494 0 00.25-.067l.548-.317v.634a.5.5 0 001 0v-.634l.549.317a.5.5 0 00.5-.866l-.55-.317.55-.317a.499.499 0 00.182-.683z"/>
</svg>