<svg height="16" width="20" xmlns="http://www.w3.org/2000/svg" viewBox="0 0 16 20">
    <title>Thunderstorm night icon</title>
    <description>Created by icon 54 from the Noun Project</description>
    <path fill="var(--rain)" d="M13.089 12.216C12.762 12.689 12 13.86 12 14.5c0 .827.673 1.5 1.5 1.5s1.5-.673 1.5-1.5c0-.64-.762-1.811-1.089-2.284-.185-.27-.637-.27-.822 0z"/>
    <path fill="var(--rain)" d="M9.089 12.216C8.761 12.689 8 13.86 8 14.5c0 .827.673 1.5 1.5 1.5s1.5-.673 1.5-1.5c0-.64-.762-1.811-1.089-2.284-.185-.27-.637-.27-.822 0z"/>
    <path fill="var(--lightning)" d="M5 11H4V8.5a.5.5 0 00-.969-.176l-1.5 4A.501.501 0 002 13h1v2.5a.5.5 0 00.968.176l1.5-4A.501.501 0 005 11z"/>
    <path fill="var(--cloud)" d="M13 5l-.098.001A4.985 4.985 0 008 1a5 5 0 00-4.584 3.001A3.504 3.504 0 000 7.5c0 1.078.501 2.032 1.27 2.675l.825-2.201a1.506 1.506 0 011.659-.953A1.505 1.505 0 015 8.5V10c.491 0 .952.24 1.232.644l.003.004c.076.11.132.229.176.353H13c1.654 0 3-1.346 3-3S14.654 5 13 5z"/>
    <path fill="var(--moon)" d="M13.681 4.058c.638.11 1.218.381 1.715.756.325-.43.538-.952.592-1.527a.498.498 0 00-.75-.478A1.462 1.462 0 0114.5 3c-.827 0-1.5-.673-1.5-1.5 0-.269.066-.524.191-.737a.5.5 0 00-.479-.751 2.968 2.968 0 00-1.748.792 5.997 5.997 0 012.717 3.254z"/>
</svg>