<svg height="16" width="20" xmlns="http://www.w3.org/2000/svg" viewBox="0 0 16 20">
    <title>Thunderstorm night icon</title>
    <description>Created by icon 54 from the Noun Project</description>
    <path fill="var(--rain)" d="M13.089 12.216C12.762 12.689 12 13.86 12 14.5c0 .827.673 1.5 1.5 1.5s1.5-.673 1.5-1.5c0-.64-.762-1.811-1.089-2.284-.185-.27-.637-.27-.822 0z"/>
    <path fill="var(--rain)" d="M9.089 12.216C8.761 12.689 8 13.86 8 14.5c0 .827.673 1.5 1.5 1.5s1.5-.673 1.5-1.5c0-.64-.762-1.811-1.089-2.284-.185-.27-.637-.27-.822 0z"/>
    <path fill="var(--lightning)" d="M5 11H4V8.5a.5.5 0 00-.969-.176l-1.5 4A.501.501 0 002 13h1v2.5a.5.5 0 00.968.176l1.5-4A.501.501 0 005 11z"/>
    <path fill="var(--cloud)" d="M13 5l-.098.001A4.985 4.985 0 008 1a5 5 0 00-4.584 3.001A3.504 3.504 0 000 7.5c0 1.078.501 2.032 1.27 2.675l.825-2.201a1.506 1.506 0 011.659-.953A1.505 1.505 0 015 8.5V10c.491 0 .952.24 1.232.644l.003.004c.076.11.132.229.176.353H13c1.654 0 3-1.346 3-3S14.654 5 13 5z"/>
    <path fill="var(--sun)" d="M13 0c-.787 0-1.497.31-2.032.805a5.996 5.996 0 012.713 3.253 3.96 3.96 0 011.702.747A2.974 2.974 0 0016 3a3 3 0 00-3-3z"/>
</svg>