<?xml version="1.0" standalone="no"?>
<!DOCTYPE svg PUBLIC "-//W3C//DTD SVG 20010904//EN"
 "http://www.w3.org/TR/2001/REC-SVG-20010904/DTD/svg10.dtd">
<svg version="1.0" xmlns="http://www.w3.org/2000/svg"
 width="700.000000pt" height="700.000000pt" viewBox="0 0 700.000000 700.000000"
 preserveAspectRatio="xMidYMid meet">
<metadata>
Created by potrace 1.14, written by Peter Selinger 2001-2017
</metadata>
<g transform="translate(0.000000,700.000000) scale(0.100000,-0.100000)"
fill="#000000" stroke="none">
<path d="M3472 6378 c-11 -18 -110 -160 -219 -315 -308 -440 -438 -626 -441
-634 -2 -4 32 4 75 18 43 13 85 26 94 28 9 2 61 13 115 25 134 29 209 35 414
35 196 0 219 -2 435 -42 16 -2 68 -16 115 -30 47 -14 96 -28 109 -31 25 -5 33
-19 -139 226 -30 43 -116 166 -190 273 -74 107 -139 199 -145 206 -5 6 -50 70
-100 142 -49 72 -93 131 -97 131 -3 0 -15 -15 -26 -32z"/>
<path d="M2107 5054 c-1 -1 -44 -5 -95 -8 -51 -4 -100 -9 -110 -10 -9 -2 -66
-7 -127 -11 -60 -3 -119 -8 -130 -10 -11 -3 -56 -7 -100 -10 -103 -7 -190 -14
-240 -19 -22 -3 -80 -8 -130 -12 -49 -4 -103 -8 -120 -9 -16 -2 -42 -3 -57 -4
l-27 -1 19 -37 c21 -41 78 -162 170 -363 66 -142 197 -423 273 -582 28 -60 54
-108 57 -108 4 0 10 17 13 38 31 189 139 472 239 628 126 196 201 290 340 426
l98 96 -35 -1 c-20 -1 -37 -2 -38 -3z"/>
<path d="M4928 4954 c178 -179 299 -349 405 -567 61 -124 126 -310 152 -432
16 -74 35 -120 35 -84 0 8 13 41 29 74 16 33 109 231 206 440 98 209 197 422
222 474 24 51 42 95 40 97 -2 2 -30 6 -63 9 -32 2 -84 7 -114 10 -30 3 -84 7
-120 10 -108 8 -192 15 -240 20 -51 5 -124 12 -220 20 -36 3 -90 8 -121 11
-30 3 -75 7 -100 8 -24 2 -83 7 -132 11 l-87 7 108 -108z"/>
<path d="M3388 4955 c-2 -1 -28 -5 -58 -8 -460 -49 -881 -333 -1107 -745 -70
-127 -126 -278 -149 -397 -4 -22 -9 -49 -11 -60 -15 -78 -20 -156 -18 -279 8
-428 207 -834 540 -1101 28 -22 52 -43 53 -47 2 -5 8 -8 13 -8 6 0 37 -19 71
-41 98 -67 275 -145 406 -179 168 -44 396 -57 570 -34 57 7 107 16 111 18 4 3
22 8 39 11 127 22 363 131 504 232 72 52 214 183 268 248 215 259 330 574 334
913 4 302 -72 571 -231 815 -231 355 -611 596 -1028 653 -38 5 -302 13 -307 9z
m247 -590 c17 -4 43 -9 60 -12 66 -11 200 -68 272 -115 170 -111 291 -261 355
-443 147 -414 -29 -861 -422 -1072 -47 -26 -155 -67 -170 -66 -3 0 -14 -3 -25
-7 -35 -13 -137 -23 -223 -22 -468 6 -852 393 -855 862 -2 226 83 443 236 607
151 161 338 250 577 276 38 4 161 -1 195 -8z"/>
<path d="M5486 3065 c-43 -204 -157 -485 -264 -650 -104 -161 -176 -249 -316
-388 l-89 -89 94 7 c52 3 105 8 119 10 14 2 65 6 114 10 50 4 97 8 105 10 9 1
60 6 114 10 54 3 106 8 115 10 9 1 62 6 117 9 55 4 111 9 125 11 14 2 61 6
105 10 98 7 189 16 192 18 1 1 -11 29 -26 62 -79 167 -248 530 -283 605 -54
117 -126 270 -169 360 l-36 75 -17 -80z"/>
<path d="M1480 3121 c0 -5 -23 -58 -51 -118 -28 -59 -76 -162 -106 -228 -31
-66 -84 -180 -119 -253 -35 -74 -64 -135 -64 -137 0 -1 -25 -56 -56 -121 -31
-66 -67 -143 -80 -171 l-23 -53 32 -1 c18 0 39 -2 48 -4 8 -1 56 -6 105 -10
49 -3 103 -8 119 -10 17 -2 66 -6 110 -10 44 -3 94 -8 110 -10 17 -2 66 -7
110 -10 44 -4 94 -8 110 -10 17 -2 66 -7 110 -10 44 -3 98 -8 120 -10 22 -3
69 -7 105 -10 36 -3 75 -7 88 -9 12 -3 22 -2 22 2 0 4 -51 59 -113 122 -170
174 -285 337 -391 555 -69 139 -143 359 -161 473 -4 23 -11 42 -16 42 -5 0 -9
-4 -9 -9z"/>
<path d="M2800 1587 c0 -8 691 -992 698 -994 4 -2 51 61 105 140 366 530 543
787 563 819 l23 37 -37 -16 c-74 -31 -295 -83 -426 -101 -68 -9 -386 -9 -456
0 -141 18 -399 81 -452 109 -10 5 -18 8 -18 6z"/>
</g>
</svg>
